<?xml version="1.0" standalone="no"?>
<!DOCTYPE svg PUBLIC "-//W3C//DTD SVG 20010904//EN"
 "http://www.w3.org/TR/2001/REC-SVG-20010904/DTD/svg10.dtd">
<svg version="1.0" xmlns="http://www.w3.org/2000/svg"
 width="2852.000000pt" height="1124.000000pt" viewBox="0 0 2852.000000 1124.000000"
 preserveAspectRatio="xMidYMid meet">

<g transform="translate(0.000000,1124.000000) scale(0.100000,-0.100000)"
fill="#000000" stroke="none">
<path d="M5300 10853 c-195 -19 -446 -81 -644 -159 -498 -196 -1202 -689
-1906 -1334 -205 -188 -837 -824 -1014 -1020 -527 -585 -863 -1128 -1059
-1710 -262 -778 -197 -1462 222 -2344 274 -578 867 -1329 1677 -2126 507 -498
849 -757 1425 -1078 775 -432 1351 -577 1965 -496 365 48 722 187 1127 440
823 515 1699 1268 2372 2039 407 466 772 1026 969 1489 252 589 285 1108 115
1779 -44 177 -195 639 -254 782 -166 403 -518 944 -936 1440 -159 189 -558
594 -744 756 -523 457 -1070 831 -1675 1147 -422 220 -822 352 -1182 391 -89
10 -375 13 -458 4z m195 -513 c254 -43 502 -125 772 -255 702 -337 1400 -838
1954 -1402 452 -460 880 -1052 1085 -1504 65 -143 192 -513 245 -714 21 -82
39 -154 39 -160 -1 -5 -25 50 -55 124 -211 520 -496 942 -1065 1576 -172 192
-592 617 -738 748 -238 213 -483 384 -777 544 -485 263 -855 366 -1315 365
-418 -1 -848 -116 -1225 -329 -487 -275 -937 -620 -1394 -1068 -585 -574 -902
-1025 -1186 -1690 -243 -566 -326 -1026 -265 -1470 30 -223 103 -508 186 -732
136 -364 423 -821 803 -1278 154 -184 516 -549 711 -715 337 -288 807 -610
1203 -824 48 -26 87 -49 87 -51 0 -8 -162 55 -300 116 -253 111 -683 355 -925
524 -285 200 -489 379 -885 781 -636 645 -1064 1197 -1300 1679 -316 646 -408
1190 -294 1750 73 358 275 817 527 1195 210 314 428 568 877 1024 546 553 984
931 1435 1238 513 350 864 501 1276 547 125 15 384 5 524 -19z m317 -1455
c235 -31 415 -89 608 -196 58 -31 134 -69 170 -82 268 -102 595 -310 895 -570
122 -105 537 -522 689 -691 342 -382 544 -687 680 -1027 46 -116 106 -323 106
-368 0 -13 3 -21 6 -18 11 10 -16 180 -47 307 -58 238 -184 556 -303 768 -193
343 -520 766 -945 1221 -57 61 -100 111 -96 111 22 0 269 -223 475 -430 405
-405 761 -829 986 -1175 175 -269 334 -628 409 -925 80 -317 84 -643 11 -932
-49 -192 -287 -607 -553 -963 -353 -473 -951 -1080 -1488 -1510 -312 -249
-772 -572 -1000 -702 -121 -69 -223 -88 -460 -87 -237 0 -386 29 -652 125
-365 133 -943 485 -1358 828 -123 102 -304 265 -299 270 2 2 61 -39 131 -91
510 -377 996 -627 1378 -708 127 -27 383 -38 509 -21 205 28 433 106 629 217
278 157 700 473 967 724 l65 61 -65 -49 c-312 -237 -677 -410 -995 -472 -155
-30 -352 -36 -485 -15 -58 10 -193 21 -300 25 -370 15 -643 76 -867 195 -267
141 -659 424 -953 688 l-95 86 -5 -275 -5 -275 -106 113 c-397 423 -726 900
-882 1278 -87 210 -187 549 -228 770 -27 146 -36 419 -20 557 29 235 102 463
232 723 474 946 1096 1601 2197 2309 258 166 282 178 398 196 142 21 149 22
361 23 122 1 233 -3 305 -13z"/>
<path d="M8972 5890 c0 -14 2 -19 5 -12 2 6 2 18 0 25 -3 6 -5 1 -5 -13z"/>
<path d="M13955 7879 c-504 -55 -946 -272 -1248 -614 -201 -227 -372 -556
-460 -885 -33 -120 -72 -331 -88 -480 -20 -173 -17 -630 4 -810 69 -574 247
-991 555 -1303 272 -276 611 -438 1061 -504 165 -24 544 -24 701 0 399 62 790
221 896 366 60 83 85 278 65 518 -12 153 -29 206 -72 224 -43 17 -84 2 -209
-77 -211 -132 -436 -226 -625 -259 -119 -21 -371 -21 -487 -1 -488 87 -782
435 -889 1051 -27 153 -38 572 -20 751 70 696 391 1140 901 1246 127 27 400
21 527 -11 175 -44 352 -125 514 -236 153 -105 180 -120 221 -120 48 0 83 34
105 99 35 112 27 518 -12 613 -20 47 -98 127 -169 172 -186 117 -390 191 -666
242 -124 23 -464 33 -605 18z"/>
<path d="M22630 7883 c-25 -2 -92 -10 -150 -19 -424 -63 -767 -227 -1049 -499
-344 -333 -554 -787 -636 -1375 -22 -158 -31 -605 -16 -795 77 -953 508 -1585
1245 -1824 516 -168 1152 -142 1646 66 171 72 303 162 350 238 34 55 50 169
50 353 -1 260 -25 354 -93 367 -43 8 -70 -3 -194 -81 -196 -123 -408 -216
-568 -249 -193 -39 -451 -36 -627 9 -456 116 -724 479 -814 1101 -22 150 -26
592 -6 730 60 423 183 714 391 924 125 126 282 218 448 262 110 30 361 37 499
16 213 -34 460 -145 678 -304 33 -23 79 -50 103 -59 41 -16 47 -16 77 -1 48
22 74 82 86 197 17 164 8 375 -21 482 -51 194 -507 406 -981 457 -90 10 -311
12 -418 4z"/>
<path d="M16305 7826 c-111 -18 -150 -32 -180 -67 l-25 -31 0 -2087 c0 -2282
-3 -2150 57 -2221 14 -17 49 -43 77 -58 l51 -27 1087 0 1086 0 26 24 c15 14
33 48 42 75 23 77 34 264 24 396 -11 134 -22 180 -55 217 l-23 28 -729 5 -728
5 -3 1826 -2 1826 -27 27 c-51 52 -193 76 -438 75 -88 -1 -196 -7 -240 -13z"/>
<path d="M19315 7829 c-128 -17 -197 -47 -215 -95 -6 -16 -10 -798 -10 -2160
0 -2351 -5 -2175 61 -2210 117 -60 568 -72 747 -19 27 8 61 27 76 41 l26 27 0
2161 c0 1911 -2 2164 -15 2183 -21 30 -105 59 -210 72 -104 13 -359 13 -460 0z"/>
<path d="M24942 7829 c-98 -13 -178 -44 -200 -77 -16 -24 -17 -161 -17 -2178
l0 -2152 24 -26 c52 -55 206 -86 431 -86 217 0 381 31 426 81 18 20 19 61 24
1108 l5 1086 685 -1080 c376 -594 699 -1094 717 -1111 18 -18 53 -39 79 -48
77 -26 262 -39 464 -33 269 9 368 35 397 105 20 49 6 112 -50 223 -23 46 -343
540 -710 1098 -368 557 -666 1019 -663 1026 2 7 276 369 607 806 332 437 632
841 667 898 77 128 99 197 83 253 -24 80 -125 108 -412 116 -286 7 -436 -16
-502 -76 -10 -9 -321 -457 -690 -995 l-672 -979 -5 973 c-3 536 -9 982 -13
991 -11 22 -80 55 -143 68 -68 15 -443 21 -532 9z"/>
</g>
</svg>
