<svg width="24" height="24" viewBox="0 0 24 24" fill="none" xmlns="http://www.w3.org/2000/svg">
<path d="M3 6H21V18H3V6ZM12 9C12.7956 9 13.5587 9.31607 14.1213 9.87868C14.6839 10.4413 15 11.2044 15 12C15 12.7956 14.6839 13.5587 14.1213 14.1213C13.5587 14.6839 12.7956 15 12 15C11.2044 15 10.4413 14.6839 9.87868 14.1213C9.31607 13.5587 9 12.7956 9 12C9 11.2044 9.31607 10.4413 9.87868 9.87868C10.4413 9.31607 11.2044 9 12 9ZM7 7C7 7.53043 6.37507 8.62493 6 9C5.62493 9.37507 4.53043 10 4 10V12V14C4.53043 14 5.62493 14.6249 6 15C6.37507 15.3751 7 16.4696 7 17H12H17C17 16.4696 17.6249 15.3751 18 15C18.3751 14.6249 19.4696 14 20 14V12V10C19.4696 10 18.3751 9.37507 18 9C17.6249 8.62493 17 7.53043 17 7H12H7Z" fill="#078D54"/>
</svg>
