<?xml version="1.0" standalone="no"?>
<!DOCTYPE svg PUBLIC "-//W3C//DTD SVG 20010904//EN"
 "http://www.w3.org/TR/2001/REC-SVG-20010904/DTD/svg10.dtd">
<svg version="1.0" xmlns="http://www.w3.org/2000/svg"
 width="2846.000000pt" height="859.000000pt" viewBox="0 0 2846.000000 859.000000"
 preserveAspectRatio="xMidYMid meet">

<g transform="translate(0.000000,859.000000) scale(0.100000,-0.100000)"
fill="#000000" stroke="none">
<path d="M4520 8084 c-161 -10 -399 -43 -550 -76 -52 -11 -106 -23 -120 -25
-49 -10 -206 -55 -305 -88 -682 -225 -1294 -642 -1750 -1190 -28 -33 -52 -62
-55 -65 -32 -30 -252 -348 -297 -430 -17 -30 -48 -84 -68 -120 -61 -108 -167
-331 -212 -450 -30 -77 -102 -293 -113 -335 -4 -16 -17 -64 -28 -105 -168
-623 -159 -1393 25 -2020 31 -107 84 -265 116 -350 45 -118 151 -342 212 -450
20 -36 51 -90 68 -120 45 -82 265 -400 297 -430 3 -3 27 -32 55 -65 405 -487
942 -877 1530 -1110 334 -133 616 -202 1040 -257 136 -17 636 -17 780 0 253
31 535 87 698 138 262 83 408 140 602 235 201 99 266 136 460 265 267 177 583
459 786 699 366 433 645 964 786 1495 177 667 177 1343 0 2010 -141 531 -420
1062 -786 1495 -203 240 -519 522 -786 699 -194 129 -259 166 -460 265 -194
95 -340 152 -602 235 -156 49 -423 102 -683 136 -85 11 -536 21 -640 14z m658
-1329 l22 -7 -2 -1027 -3 -1026 -440 0 -440 0 -3 1027 -2 1027 42 5 c24 4 63
8 88 10 79 6 714 -1 738 -9z m-1918 -1927 c0 -1010 2 -1081 44 -1337 112 -683
462 -1120 1011 -1261 256 -66 624 -66 880 0 450 115 766 428 926 915 45 135
46 140 73 280 53 270 56 350 56 1403 0 937 1 972 18 972 102 0 941 -222 964
-254 4 -6 8 -362 8 -791 -1 -912 -5 -994 -76 -1285 -106 -434 -336 -841 -655
-1159 -278 -277 -603 -479 -969 -601 -75 -25 -117 -37 -250 -70 -254 -63 -671
-72 -965 -20 -1121 198 -1963 1131 -2045 2266 -11 159 -14 1644 -2 1659 17 25
400 133 757 214 22 6 60 14 85 20 72 17 83 19 113 20 l27 1 0 -972z"/>
<path d="M23815 5850 c-311 -36 -574 -137 -771 -296 -123 -99 -235 -235 -316
-384 -68 -124 -128 -328 -148 -495 -6 -56 -10 -453 -10 -1047 l0 -958 450 0
449 0 3 933 c4 1045 -1 977 80 1145 96 202 289 312 549 312 304 0 530 -150
614 -406 l25 -77 0 -953 0 -954 455 0 455 0 0 928 c0 594 4 950 11 992 16 100
76 215 153 292 117 117 276 178 466 178 301 0 515 -147 596 -409 41 -132 44
-201 44 -1108 l0 -873 445 0 445 0 0 959 c0 598 -4 989 -10 1038 -41 314 -167
579 -367 775 -102 101 -155 142 -256 202 -72 42 -219 109 -280 127 -248 74
-317 83 -627 83 -281 1 -328 -4 -505 -49 -159 -41 -362 -130 -503 -221 l-83
-54 -92 56 c-205 127 -360 186 -667 254 -66 15 -503 22 -605 10z"/>
<path d="M10533 4783 c4 -1072 5 -1091 51 -1279 105 -427 391 -705 841 -818
130 -32 153 -37 225 -47 295 -39 836 -39 1120 0 206 29 444 106 604 195 253
141 440 394 509 686 9 36 22 85 28 110 10 34 14 302 16 1108 l4 1062 -450 0
-450 0 -4 -947 c-3 -852 -5 -954 -20 -1003 -94 -308 -323 -440 -765 -440 -221
0 -385 30 -514 96 -69 35 -170 134 -207 203 -90 169 -91 182 -91 1219 l0 872
-451 0 -450 0 4 -1017z"/>
<path d="M14680 5425 l0 -375 844 0 c494 0 847 -4 850 -9 4 -5 -31 -42 -76
-83 -46 -40 -110 -98 -143 -128 -33 -31 -100 -91 -150 -135 -49 -43 -117 -104
-150 -135 -83 -76 -466 -420 -574 -515 -68 -60 -147 -131 -206 -186 -83 -76
-347 -312 -422 -378 l-63 -54 0 -378 0 -379 1560 0 1560 0 0 375 0 375 -924 0
c-509 0 -927 4 -930 8 -3 5 7 20 22 32 25 22 92 82 442 395 74 66 166 149 205
184 38 36 90 83 115 105 42 39 267 241 520 466 116 104 265 238 403 363 l87
80 0 373 0 374 -1485 0 -1485 0 0 -375z"/>
<path d="M18420 4797 c0 -1029 3 -1113 41 -1274 110 -466 420 -751 934 -858
216 -44 278 -49 690 -49 335 -1 420 2 525 17 69 10 141 22 160 27 19 5 73 19
120 31 431 109 721 361 848 734 11 33 30 105 43 160 l23 100 4 1058 3 1057
-451 0 -450 0 0 -915 c0 -1024 1 -1002 -70 -1150 -109 -226 -330 -325 -725
-325 -451 0 -680 132 -772 445 -16 55 -18 136 -21 1003 l-3 942 -449 0 -450 0
0 -1003z"/>
</g>
</svg>
